<svg xmlns="http://www.w3.org/2000/svg" viewBox="0 0 206 110"><g fill="#BE9F56"><path d="M79.6 67.9c0 21.9-17.8 39.6-39.6 39.6C18.1 107.5.4 89.7.4 67.9.4 46 18.2 28.3 40 28.3S79.6 46 79.6 67.9zm-6.2 0c0-18.4-15-33.5-33.5-33.5-18.4 0-33.5 15-33.5 33.5 0 18.4 15 33.5 33.5 33.5 18.5-.1 33.5-15.1 33.5-33.5zm132.2 0c0 21.9-17.8 39.6-39.6 39.6-21.9 0-39.6-17.8-39.6-39.6-.1-21.9 17.7-39.6 39.5-39.6 21.9 0 39.7 17.7 39.7 39.6zm-6.2 0c0-18.4-15-33.5-33.5-33.5-18.4 0-33.5 15-33.5 33.5 0 18.4 15 33.5 33.5 33.5 18.5-.1 33.5-15.1 33.5-33.5z"/><path d="M137.8 17c.7 0 1.4.4 1.8 1l4.4 7.7c.5.8.3 1.8-.3 2.5l-39.3 41.1c-.4.4-.9.6-1.5.6h-63c-.8 0-1.5-.4-1.8-1.1-.4-.7-.3-1.5.2-2.1l34.8-48.8c.4-.5 1-.9 1.7-.9h63zm-62 4.1c-1.1 1.6-27.9 39.1-31.9 44.7H102c1.1-1.2 35.6-37.3 37.6-39.4-.9-1.5-2.3-4.1-3.1-5.3H75.8z"/><path d="M66.415 8.7l28.706 50.141c.6 1 1.8 1.4 2.8.8 1-.6 1.4-1.8.8-2.8L71.064 8.532c1.696-.189 3.121-.51 3.636-.832.8-.6 3.5-1 6.1-1 2.6 0 4.1-.9 3.3-2.1-.7-1.1-3.6-2.1-6.4-2.1H56.6c-1.6 0-2 1.4-1 3.1 1 1.7 4.1 3.1 7 3.1h3.815zm61.398-2.731l36.166 62.611c.6 1 1.8 1.4 2.8.8 1-.6 1.4-1.8.8-2.8L132.991 6.7H147.8c3.8 0 7 3.1 7 7 0 3.8-3.1 7-7 7-1.2 0-2.1 1-2.1 2.1 0 1.2 1 2.1 2.1 2.1 6.2 0 11.2-5 11.2-11.2 0-6.2-5-11.2-11.2-11.2h-18.4c-1.2 0-2.1 1-2.1 2.1 0 .533.197 1.007.513 1.369z"/><path d="M104.5 77.165c1.568-.268 3.003-.923 4.202-1.863L105.3 71.9c-.258.129-.515.258-.8.36v4.905zm0-18.53c1.544.264 2.958.902 4.146 1.819L105.3 63.8c-.258-.129-.515-.258-.8-.36v-4.805zm-3.1-.017c-1.607.257-3.077.92-4.302 1.88L100.4 63.8c.317-.158.634-.317 1-.425v-4.757zm0 18.564c-1.632-.261-3.122-.94-4.358-1.924L100.4 71.9c.317.158.634.317 1 .426v4.856zm3.1-22.284c6.44.797 11.4 6.336 11.4 12.902 0 6.651-5.035 12.108-11.4 12.901V84.1h2.3v3h-7.7v-3h2.3v-3.386C94.911 79.962 89.9 74.4 89.9 67.8s5.011-12.162 11.5-12.914V52.2h-2.3v-3h7.7v3h-2.3v2.698zm5.802 18.804c1.039-1.326 1.73-2.939 1.935-4.702H107.4c-.1.5-.3.9-.5 1.3l3.402 3.402zm1.922-7.002c-.221-1.749-.922-3.347-1.966-4.658L106.9 65.4c.2.4.4.8.5 1.3h4.824zm-16.726-4.602c-1.02 1.301-1.704 2.878-1.922 4.602H98.3c.1-.5.3-.9.5-1.3l-3.302-3.302zM93.563 69c.202 1.739.876 3.331 1.891 4.646L98.8 70.3c-.2-.4-.4-.8-.5-1.3h-4.737z"/><path d="M102.721 56.796l-62.593 6.738c-.6.1-1.1-.4-1.1-.9-.1-.6.4-1.1.9-1.1l62.593-6.738c.5-.1 1 .3 1.1.9.1.6-.4 1.1-.9 1.1zM40 72.2l63 5.6c.6.1.945.649.9 1.1-.045.451-.6 1-1.1.9l-63-5.6c-.6-.1-1-.6-.9-1.1.1-.5.6-.9 1.1-.9z"/><path d="M166.696 64.387l10.699-29.397.94.342-10.702 29.406c.061.034.122.069.181.106l20.07-23.917.766.643-20.07 23.917c.049.054.096.11.141.167L195.8 50l.5.9-27.061 15.643c.035.087.067.176.095.266l30.768-5.423.173.985-30.776 5.425c.001.034.001.069.001.104 0 .031 0 .062-.001.092l30.829 5.451-.174.985-30.816-5.449c-.029.094-.062.186-.098.276l27.086 15.584-.499.866-27.086-15.584c-.039.05-.079.099-.121.147l20.071 23.931-.766.643-20.06-23.919c-.065.042-.132.083-.199.12l10.691 29.385-.94.341-10.684-29.364c-.109.025-.22.046-.333.061V102.7h-1V71.466c-.067-.009-.134-.02-.2-.033l-10.665 29.302-.939-.342 10.658-29.286c-.071-.036-.141-.075-.21-.116l-20.05 23.896-.766-.642 20.038-23.882c-.075-.08-.146-.163-.213-.25L136 85.7l-.5-.9 27.045-15.582c-.026-.067-.05-.135-.072-.204l-30.707 5.413-.173-.985 30.709-5.414c-.001-.042-.002-.085-.002-.128 0-.037.001-.073.002-.11l-30.73-5.436.174-.985 30.721 5.435c.033-.103.07-.204.111-.303L135.5 50.9l.5-.9 27.108 15.618c.057-.07.116-.137.178-.203l-20.022-23.859.766-.643 20.04 23.88c.066-.039.134-.075.203-.11l-10.684-29.318.94-.342 10.692 29.34c.059-.011.119-.021.179-.029V33.1h1v31.234c.1.014.199.031.296.053z"><animateTransform attributeType="xml" attributeName="transform" type="rotate" from="0 166 68" to="360 166 68" dur="2s" repeatCount="indefinite"/></path><path d="M39.5 61.519V33.1h1v28.419c.402.03.792.097 1.168.197l9.726-26.723.94.342-9.723 26.713c.368.163.715.359 1.041.585l18.225-21.715.766.643-18.217 21.705c.308.294.586.62.83.97l24.566-14.184.5.866L45.76 65.099c.182.375.327.769.434 1.178L74.1 61.3l.2 1.1-27.929 4.886c.019.202.029.407.029.614 0 .208-.01.413-.029.615L74.3 73.4l-.2 1-27.9-4.895c-.107.421-.255.824-.44 1.205l24.563 14.121-.499.867-24.571-14.126c-.228.326-.486.63-.769.906l18.23 21.712-.766.643-18.232-21.714c-.334.237-.691.442-1.067.612l9.719 26.677-.94.342-9.719-26.679c-.39.107-.794.178-1.209.21V102.7h-1V74.281c-.434-.033-.855-.108-1.258-.222l-9.708 26.673-.939-.342 9.708-26.677c-.363-.167-.707-.368-1.028-.597L18.007 94.892l-.766-.643L35.51 72.472c-.294-.289-.559-.606-.792-.947L10.066 85.758l-.5-.866 24.653-14.234c-.176-.372-.318-.763-.421-1.17L5.8 74.4l-.2-1 28.027-4.903c-.018-.197-.027-.396-.027-.597 0-.201.009-.4.027-.597L5.6 62.4l.2-1.1 28.002 4.995c.1-.391.236-.768.405-1.127L9.558 50.945l.499-.866 24.644 14.22c.243-.358.52-.69.829-.991L17.272 41.539l.766-.643 18.26 21.772c.317-.224.655-.42 1.012-.585L27.6 35.4l.9-.4 9.732 26.743c.406-.115.83-.191 1.268-.224z"><animateTransform attributeType="xml" attributeName="transform" type="rotate" from="0 40 68" to="360 40 68" dur="2s" repeatCount="indefinite"/></path></g></svg>