<svg xmlns="http://www.w3.org/2000/svg" viewBox="0 0 320 460"><defs><filter id="drop-shadow"><feOffset dy="5"/><feGaussianBlur stdDeviation="10" result="offset-blur"/><feFlood flood-color="#000" flood-opacity=".3" result="color"/><feComposite operator="in" in="color" in2="offset-blur" result="shadow"/><feComposite in="SourceGraphic" in2="shadow"/></filter></defs><g filter="url(#drop-shadow)" fill="none" fill-rule="evenodd"><g fill="#CCC"><path d="M301.5 179.1c0-2.6-.1-5.3-.2-7.9-.3-7.1-.9-14-1.9-20.7l-.2-1.6c-.2-1-1-1.6-1.9-1.3l-1.7.4c-30.8 7.9-46.9 3.8-60.2-4.1-1.8-1.1-3.6-2.3-5.4-3.5-2.6-1.8-5.2-3.8-7.9-5.8-13.9-10.5-29.7-22.4-61.7-22.4s-47.8 11.9-61.7 22.4c-17.2 12.9-32 24.1-73.5 13.4l-1.7-.4c-1-.3-1.8.4-2 1.4l-.2 1.6c-2.8 20.1-2.9 42.7-.1 65.3 3.1 25.5 9.7 50.7 19.4 75.1.8 2 1.6 4 2.5 6 .8 2 1.7 3.9 2.6 5.9 8.8 19.5 19.6 38.1 32.2 55.5 1.2 1.7 2.4 3.3 3.7 5 1 1.3 2 2.7 3.1 4 20 25.5 44.2 48.3 72 67.8 3 1.9 4.4 1.8 7.2-.1.1-.1.2-.1.3-.2 27.6-19.5 51.7-42.2 71.6-67.6 18.3-23.4 33.1-49.1 44.1-76.4 9.7-24.3 16.3-49.6 19.4-75.1 1.7-12.4 2.3-24.7 2.2-36.7"/><path d="M57.7 89.6c0 21.9 17.8 39.6 39.6 39.6 21.9 0 39.6-17.8 39.6-39.6C137 67.7 119.2 50 97.4 50c-21.9 0-39.7 17.7-39.7 39.6zm6.2 0c0-18.4 15-33.5 33.5-33.5 18.4 0 33.5 15 33.5 33.5 0 18.4-15 33.5-33.5 33.5-18.5-.1-33.5-15.1-33.5-33.5zm119.8 0c0 21.9 17.8 39.6 39.6 39.6 21.9 0 39.6-17.8 39.6-39.6 0-21.9-17.8-39.6-39.6-39.6s-39.6 17.7-39.6 39.6zm6.2 0c0-18.4 15-33.5 33.5-33.5 18.4 0 33.5 15 33.5 33.5 0 18.4-15 33.5-33.5 33.5-18.5-.1-33.5-15.1-33.5-33.5z"/><path d="M125.5 38.7c-.7 0-1.4.4-1.8 1l-4.4 7.7c-.5.8-.3 1.8.3 2.5L158.9 91c.4.4.9.6 1.5.6h63c.8 0 1.5-.4 1.8-1.1.4-.7.3-1.5-.2-2.1l-34.8-48.8c-.4-.5-1-.9-1.7-.9h-63zm62 4.1c1.1 1.6 27.9 39.1 31.9 44.7h-58.1c-1.1-1.2-35.6-37.3-37.6-39.4.9-1.5 2.3-4.1 3.1-5.3h60.7z"/><path d="M186.7 39.8l-28.2 48.8c-.6 1-.2 2.2.8 2.8 1 .6 2.2.2 2.8-.8l28.2-48.8c.6-1 .2-2.2-.8-2.8-.9-.6-2.2-.2-2.8.8zm-63 0L95.6 88.6c-.6 1-.2 2.2.8 2.8 1 .6 2.2.2 2.8-.8l28.2-48.8c.6-1 .2-2.2-.8-2.8-1-.6-2.3-.2-2.9.8z"/><path d="M193.8 27.5l-24.3 42.1c-.6 1-.2 2.2.8 2.8 1 .6 2.2.2 2.8-.8l24.3-42.1c.6-1 .2-2.2-.8-2.8-1-.5-2.3-.1-2.8.8zm-61.7-2.2l-28.2 48.8c-.6 1-.2 2.2.8 2.8 1 .6 2.2.2 2.8-.8l28.2-48.8c.6-1 .2-2.2-.8-2.8-1-.6-2.2-.2-2.8.8z"/><path d="M115.5 24.2c-6.2 0-11.2 5-11.2 11.2 0 6.2 5 11.2 11.2 11.2 1.1 0 2.1-.9 2.1-2.1 0-1.1-.9-2.1-2.1-2.1-3.9 0-7-3.2-7-7 0-3.9 3.2-7 7-7h18.4c1.1 0 2.1-.9 2.1-2.1 0-1.1-.9-2.1-2.1-2.1h-18.4zm114.2 65.4c0 3.5-2.8 6.4-6.4 6.4-3.5 0-6.4-2.8-6.4-6.4 0-3.5 2.8-6.4 6.4-6.4 3.6 0 6.4 2.9 6.4 6.4zm-128.7 0c0 2-1.6 3.6-3.6 3.6s-3.6-1.6-3.6-3.6 1.6-3.6 3.6-3.6 3.6 1.6 3.6 3.6zm106.7-62.3c-1 1.7-4.1 3.1-7 3.1h-5.5c-2.8 0-5.8-.5-6.6-1-.8-.6-3.5-1-6.1-1-2.6 0-4.1-.9-3.3-2.1.7-1.1 3.6-2.1 6.4-2.1h21.1c1.6 0 2 1.4 1 3.1zm-48.9 45.1h3.1v34.8h-3.1V72.4z"/><path d="M156.5 70.9h7.7v3h-7.7v-3zm0 34.9h7.7v3h-7.7v-3zm3.9-29.3c-7.2 0-13 5.9-13 13 0 7.2 5.9 13 13 13 7.2 0 13-5.9 13-13s-5.8-13-13-13zm0 22.5c-5.2 0-9.4-4.2-9.4-9.4s4.2-9.4 9.4-9.4 9.4 4.2 9.4 9.4-4.2 9.4-9.4 9.4zm0-20.4v22-22zm-7.8 3.2l15.5 15.6-15.5-15.6zm-3.2 7.8h21.9-21.9zm3.2 7.8l15.5-15.6-15.5 15.6z"/><path d="M171.3 90.7v-2.3H165c-.1-.5-.3-.9-.5-1.3l4.5-4.5-1.6-1.6-4.5 4.5c-.4-.2-.8-.4-1.3-.5v-6.4h-2.3V85c-.5.1-.9.3-1.3.5l-4.5-4.5-1.6 1.6 4.5 4.5c-.2.4-.4.8-.5 1.3h-6.4v2.3h6.4c.1.5.3.9.5 1.3l-4.5 4.5 1.6 1.6 4.5-4.5c.4.2.8.4 1.3.5v6.4h2.3v-6.4c.5-.1.9-.3 1.3-.5l4.5 4.5 1.6-1.6-4.5-4.5c.2-.4.4-.8.5-1.3h6.3z"/><path d="M159.3 78.5c-.1.6.4 1.1.9 1.1l63 6.1c.6.1 1.1-.4 1.1-.9.1-.6-.4-1.1-.9-1.1l-63-6.1c-.5-.1-1 .3-1.1.9zm64 15.4l-63 5.6c-.6.1-1 .6-.9 1.1.1.6.6 1 1.1.9l63-5.6c.6-.1 1-.6.9-1.1-.1-.5-.6-.9-1.1-.9z"/></g><path fill="#EEE" d="M82.7 354.3c-12.7-17.4-23.4-36.1-32.1-55.7 49.7-41.7 130.2-109.1 179.7-150.6 14 8.9 31.1 14.4 63.3 6.7.9 7 1.4 14.1 1.6 21.4-44.2 37.2-154.9 130-212.5 178.2"/></g></svg>
