<svg xmlns="http://www.w3.org/2000/svg" viewBox="0 0 228 160"><defs><filter id="drop-shadow"><feOffset dy="2"/><feGaussianBlur stdDeviation="5" result="offset-blur"/><feFlood flood-color="#000" flood-opacity=".5" result="color"/><feComposite operator="in" in="color" in2="offset-blur" result="shadow"/><feComposite in="SourceGraphic" in2="shadow"/></filter></defs><g fill="none" fill-rule="evenodd"><path fill="#FFF" filter="url(#drop-shadow)" d="M94.4 124.6v-13H99v16.8h-7l-14.1-13.3v13.2h-4.6v-16.7h7.2m36.3-.7c5 0 8.6.8 10.7 1.7v4.2c-2.4-1.2-6.3-2.2-10.7-2.2-3.7 0-5.9.8-6.9 1.8-.8.8-1.3 1.8-1.3 3.5 0 1.8.5 2.7 1.3 3.5 1 1 3.2 1.8 6.9 1.8 4.4 0 8.3-.9 10.7-2v4c-2.1.9-5.6 1.7-10.7 1.7-6 0-9.3-1.4-10.9-3-1.5-1.5-2.2-3.5-2.2-6s.7-4.6 2.2-6c1.6-1.6 4.9-3 10.9-3zm37.3 8v3.6h-16.9v5.9h-4.8v-16.8h22v3.8h-17.2v3.5h16.9M8.2 149l9.8-6.4h6.9v.1l-12.6 8.2 12.8 8.4v.1h-7.2l-10-6.6H5.1v6.6H.3v-16.8h4.8v6.4m32.7-6.5h6.1L56 159.4h-5.5l-2.3-3.3H33.3l-2.3 3.3h-5.3l12.1-16.9zm-2.1 10.1h10.1l-5-7.2-5.1 7.2zm44.8 2.9v3.9H59.1v-16.8h4.8v12.9m42.6-6.4v3.6H89v2.9h18v3.8H84.4v-16.8H107v3.8H89v2.7h17.5m26.8 6.5v-13h4.6v16.8h-7l-14.2-13.2v13.2h-4.6v-16.8h7.2m24.2 0h12.8c6 0 8.5 1 10.3 2.8 1.4 1.4 2.1 3.4 2.1 5.6 0 2.2-.7 4.2-2.1 5.6-1.8 1.8-4.3 2.8-10.3 2.8h-12.8v-16.8zm4.8 13h8c3.9 0 5.4-.6 6.5-1.6.7-.7 1.1-1.6 1.1-3s-.5-2.4-1.1-3c-1-1-2.6-1.6-6.5-1.6h-8v9.2zm47.2-6.5v3.6H178v2.9h17.9v3.8h-22.6v-16.8h22.6v3.8H178v2.7h17.5m28.2 3c-1 1-2.3 1.6-5.2 1.8l8.5 5.4v.1h-7l-8.1-5.4h-6v5.4h-4.8v-16.8h14.6c5.1 0 6.8.6 8 1.8 1.1 1.1 1.3 2.5 1.3 3.8.1 1.3-.2 2.7-1.3 3.9zm-8-5.7h-9.8v4h9.8c2.2 0 3.5-.2 4.1-.8.3-.3.5-.8.5-1.3 0-.6-.1-1-.5-1.3-.5-.5-1.7-.6-4.1-.6zM141.94 31.07c-.06-1.495-.2-2.928-.38-4.3l-.058-.385c-.14-.787-.798-1.352-1.555-1.352-.14 0-.28.02-.4.06l-.338.08c-2.12.546-3.93.83-5.53.83-2.12 0-3.75-.445-5.5-1.515-.32-.182-.64-.404-1-.666-.04-.02-.08-.06-.12-.1 4.14-.89 7.25-4.624 7.25-9.086 0-5.128-4.13-9.306-9.19-9.306-1.38 0-2.69.323-3.87.868l-1.08-1.535.4-.706h.01c.86 0 1.99-.404 2.49-1.272.36-.606.38-1.272.08-1.797-.28-.484-.8-.787-1.38-.787h-4.2c-.3 0-1.78.04-2.38 1.03-.3.47-.32 1.03-.04 1.52.08.16.2.28.32.41h-6.96l.2-.36c.02-.04.02-.06.04-.1.02-.04.04-.1.06-.16.02-.06.04-.12.06-.16.02-.04.02-.1.04-.14.02-.06.02-.12.02-.2V1.8c0-.06 0-.123-.02-.183 0-.06-.02-.1-.02-.16V1.4c0-.04-.02-.08-.04-.1-.02-.063-.04-.103-.06-.163-.02-.06-.06-.1-.08-.16-.02-.04-.04-.082-.08-.122-.04-.06-.08-.1-.12-.14l-.1-.1c-.04-.04-.08-.08-.14-.12-.04-.042-.08-.062-.11-.102-.02-.02-.04-.02-.04-.04-.06-.04-.1-.06-.16-.082 0 0-.02 0-.02-.02-.08-.04-.18-.06-.28-.08-.02 0-.06-.02-.08-.02-.1-.02-.2-.04-.3-.04h-3.67c-1.94 0-3.51 1.6-3.51 3.56 0 .61.16 1.17.42 1.68-.18 0-.34-.02-.52-.02-5.06 0-9.19 4.18-9.19 9.31 0 4.46 3.11 8.2 7.26 9.09-1.86 1.34-3.67 2.26-6.64 2.26-1.6 0-3.39-.26-5.52-.82l-.34-.08c-.14-.04-.28-.06-.4-.06-.8 0-1.46.59-1.58 1.42l-.04.32c-.57 4.17-.57 8.83-.018 13.51.64 5.25 1.975 10.46 3.95 15.49.16.43.34.83.5 1.23.18.41.34.81.515 1.21 1.77 4.02 3.983 7.88 6.56 11.45.233.35.492.69.75 1.03.2.28.42.55.62.83 4.07 5.25 8.97 9.93 14.63 13.95l.06.04c.38.24.84.47 1.4.47.58 0 1.04-.24 1.42-.5l.04-.02.06-.04c5.62-4 10.504-8.69 14.55-13.89 3.73-4.83 6.74-10.12 8.97-15.73 1.973-5.03 3.31-10.24 3.95-15.49.32-2.54.46-5.11.42-7.59.02-.53 0-1.07-.02-1.62z"/><path fill="#FFF" d="M97.092 68.093c-2.53-3.512-4.664-7.288-6.398-11.244 9.906-8.42 25.952-22.03 35.818-30.41 2.79 1.79 6.2 2.9 12.617 1.35.18 1.41.28 2.84.31 4.32-8.81 7.51-30.88 26.24-42.36 35.97"/><path fill="#BE9F56" d="M140.704 32.724c0-.525-.02-1.07-.04-1.595-.06-1.44-.18-2.83-.378-4.18l-.04-.33c-.04-.2-.2-.33-.38-.27l-.338.08c-6.14 1.59-9.348.77-12-.83-.358-.22-.717-.47-1.076-.71-.518-.37-1.036-.77-1.574-1.17-2.77-2.12-5.92-4.53-12.3-4.53-6.377 0-9.526 2.4-12.297 4.52-3.42 2.6-6.37 4.86-14.65 2.7l-.33-.08c-.2-.06-.36.08-.4.28l-.04.32c-.55 4.05-.57 8.62-.02 13.18.62 5.15 1.93 10.24 3.87 15.16.16.4.32.81.5 1.21.16.4.34.79.52 1.19 1.76 3.94 3.91 7.69 6.42 11.2.24.34.48.66.74 1.01.2.26.4.54.62.81 3.99 5.14 8.81 9.75 14.35 13.68.6.38.88.36 1.44-.02.02-.02.04-.02.06-.04 5.5-3.94 10.31-8.52 14.27-13.65 3.65-4.73 6.6-9.92 8.79-15.43 1.94-4.91 3.25-10.02 3.87-15.16.34-2.51.46-4.99.44-7.41M89.86 54.83c-2.75-6.944-4.187-14.474-4.187-21.46 0-1.896.12-3.754.34-5.55 8.33 1.998 11.58-.465 15.01-3.09 2.75-2.1 5.6-4.28 11.56-4.28 5.96 0 8.81 2.18 11.56 4.28.44.344.88.667 1.34 1.01L90.2 55.68c-.1-.283-.22-.565-.34-.848m7.235 13.262c-2.53-3.512-4.664-7.288-6.398-11.244 9.906-8.42 25.952-22.03 35.818-30.41 2.79 1.79 6.2 2.9 12.617 1.35.18 1.41.28 2.84.32 4.32-8.81 7.51-30.876 26.24-42.357 35.97m38.19-13.27c-2.132 5.41-5.022 10.472-8.61 15.12-3.907 5.043-8.65 9.57-14.093 13.44-5.443-3.876-10.187-8.4-14.094-13.445-.22-.28-.418-.565-.638-.827l41.638-35.35c-.08 6.866-1.515 14.255-4.206 21.06"/><path fill="#E63329" d="M89.856 54.83c-2.75-6.945-4.185-14.475-4.185-21.46 0-1.897.12-3.755.34-5.55 8.33 1.997 11.58-.466 15.01-3.09 2.75-2.1 5.6-4.28 11.56-4.28 5.96 0 8.81 2.18 11.56 4.28.44.343.88.666 1.34 1.01L90.2 55.678c-.1-.283-.22-.565-.34-.848"/><path fill="#003A78" d="M135.282 54.83c-2.132 5.41-5.022 10.477-8.61 15.12-3.907 5.048-8.65 9.57-14.093 13.446-5.45-3.876-10.19-8.398-14.1-13.445-.22-.28-.42-.56-.64-.82l41.64-35.35c-.08 6.87-1.52 14.26-4.21 21.06"/><path fill="#BE9F56" d="M105.085 58.544l-7.455-1.857 2.89 3.493c.32.383.54.585.658.605.12.02.34-.06.638-.282l.08-.06.32.403-1.955 1.675-.31-.4.08-.08c.26-.26.4-.44.38-.58 0-.12-.18-.38-.48-.76l-3.19-3.85c-.32-.38-.53-.58-.65-.62-.12-.02-.34.06-.63.28l-.08.06-.32-.4 1.56-1.33 7.42 1.86-2.93-3.55c-.32-.38-.54-.59-.66-.61-.12-.04-.33.06-.63.29l-.08.06-.32-.4 1.96-1.67.32.4-.08.06c-.26.27-.4.47-.4.59s.16.39.48.77l4.3 5.19-.88.77zm12.936-11.547c-.41.808-.99 1.534-1.75 2.18-1.05.89-2.11 1.292-3.19 1.212-1.07-.09-2.03-.65-2.91-1.7-.87-1.05-1.25-2.12-1.17-3.19.1-1.07.66-2.04 1.72-2.93.64-.55 1.4-1.03 2.25-1.44l1.08 1.31-.61.52-.06-.08c-.32-.39-.58-.57-.78-.57-.48 0-.97.22-1.49.67-.61.52-.87 1.17-.79 1.95.08.78.5 1.63 1.26 2.54.78.93 1.56 1.47 2.32 1.63.76.14 1.52-.1 2.27-.73.52-.45.98-1.11 1.4-1.98l.5.56zm5.88-9.65l1.46 1.757c.38.403.6.625.7.625.1.02.32-.13.7-.41l.08-.06.32.4-2.77 2.34-.32-.41.08-.08c.26-.27.4-.45.38-.59 0-.12-.18-.39-.48-.77l-3.19-3.86c-.31-.39-.53-.59-.65-.61-.12-.02-.34.06-.64.28l-.08.06-.32-.41 4.59-3.9.98 1.19-.61.53-.06-.08c-.12-.12-.2-.22-.24-.26-.14-.19-.28-.27-.38-.25-.12.02-.3.12-.56.36l-1.35 1.15 2.12 2.57.88-.75c.34-.28.52-.46.56-.5.04-.06 0-.14-.08-.26-.02-.02-.06-.08-.16-.2l-.06-.08.44-.39 1.14 1.37-.48.38-.07-.06c-.08-.08-.12-.14-.16-.16-.1-.12-.18-.15-.28-.12-.1.04-.3.18-.58.42l-.85.73zm-31.83.1h-3.13v-.685l.82-.787c.58-.566.96-.97 1.16-1.252.22-.303.34-.606.34-.888 0-.202-.08-.384-.22-.525-.14-.142-.36-.202-.62-.202-.18 0-.36.04-.52.12-.14.082-.34.203-.55.385l-.48-.566c.44-.484.96-.726 1.58-.726.46 0 .84.13 1.16.37.34.29.52.67.52 1.17 0 .41-.14.81-.4 1.19-.2.31-.58.75-1.13 1.31l-.26.27h1.8v.83h-.04zm4.37-1.735c0 .505-.18.93-.52 1.292-.34.363-.77.525-1.29.525s-.95-.19-1.29-.53c-.34-.37-.52-.79-.52-1.29 0-.29.06-.57.2-.85l1.12-2.45h.94l-.68 1.51c.1 0 .18-.02.24-.02.52 0 .96.18 1.3.52.34.34.52.76.52 1.27zm-.87 0c0-.283-.1-.525-.28-.727-.18-.202-.4-.303-.67-.303-.26 0-.49.1-.67.303-.18.202-.28.444-.28.727s.08.525.26.727c.18.18.4.28.68.28.26 0 .5-.1.68-.3.2-.19.3-.43.3-.71zm4.71.323h-2.49v-.787h2.47v.787h.02zm2.77 1.413h-.87V33.37l-.87.364-.36-.747 1.42-.606h.68v5.07h.02zm5.01-2.523c0 .827-.16 1.473-.5 1.938-.34.444-.8.686-1.37.686-.59 0-1.05-.23-1.37-.69-.34-.45-.5-1.09-.5-1.92 0-.83.16-1.48.5-1.92.34-.47.8-.69 1.38-.69.58 0 1.04.22 1.38.68.32.42.5 1.07.5 1.9zm-.87 0c0-1.212-.34-1.797-.99-1.797-.67 0-.99.606-.99 1.797 0 1.21.34 1.796 1 1.796.66 0 1-.58 1-1.79zm7.34 29.958h-.88v-4.078l-.88.364-.36-.75 1.42-.61h.68v5.06h.02zm4.92-3.31c0 .282-.06.565-.2.848l-1.11 2.45h-.94l.68-1.51c-.1 0-.18.02-.24.02-.52 0-.95-.18-1.29-.52-.34-.36-.52-.78-.52-1.27 0-.5.18-.93.52-1.29s.78-.52 1.3-.52.96.18 1.3.53c.36.37.52.79.52 1.3zm-.86 0c0-.283-.08-.525-.26-.727-.18-.182-.4-.283-.67-.283-.26 0-.5.1-.68.303-.18.202-.28.444-.28.727 0 .282.1.525.28.727.18.2.4.302.68.302.26 0 .5-.1.68-.302.16-.222.26-.465.26-.747zm3.93 3.31h-.88v-4.078l-.87.364-.36-.75 1.41-.61h.68v5.06h.02zm4.98-2.523c0 .828-.16 1.474-.5 1.938-.33.444-.79.686-1.37.686-.59 0-1.05-.222-1.37-.686-.34-.444-.5-1.09-.5-1.918 0-.828.16-1.474.5-1.918.34-.464.8-.686 1.38-.686s1.04.222 1.38.686c.34.424.5 1.07.5 1.898zm-.85 0c0-1.21-.34-1.797-1-1.797-.67 0-.99.606-.99 1.797 0 1.21.34 1.797 1 1.797.66.02 1-.586 1-1.797zM110 53.86c0 .485-.4.89-.878.89s-.876-.405-.876-.89c0-.484.4-.887.877-.887.5 0 .878.403.878.888zm11.76-9.952c0 .485-.4.89-.878.89s-.876-.405-.876-.89c0-.484.4-.888.877-.888.48 0 .878.404.878.888zm10.623-9.044c0 .485-.4.888-.875.888s-.875-.403-.875-.888c0-.484.4-.888.874-.888.5.02.876.404.876.888zM92.11 14.656c0 4.42 3.547 7.995 7.892 7.995 4.365 0 7.893-3.59 7.893-7.99.02-4.42-3.528-7.99-7.873-7.99-4.365 0-7.913 3.58-7.913 8zm1.235 0c0-3.714 2.99-6.763 6.677-6.763 3.668 0 6.677 3.028 6.677 6.763 0 3.715-2.99 6.763-6.68 6.763-3.69-.02-6.68-3.05-6.68-6.77zm23.88 0c0 4.42 3.547 7.995 7.892 7.995 4.365 0 7.893-3.59 7.893-7.99 0-4.42-3.548-7.99-7.893-7.99s-7.893 3.58-7.893 8zm1.235 0c0-3.714 2.99-6.763 6.677-6.763 3.667 0 6.677 3.028 6.677 6.763 0 3.715-2.99 6.763-6.677 6.763-3.688-.02-6.677-3.05-6.677-6.77z"/><path fill="#BE9F56" d="M105.623 4.38c-.14 0-.28.08-.36.202l-.876 1.555c-.1.16-.06.363.06.505l7.833 8.297c.08.08.18.12.3.12h12.557c.16 0 .3-.08.36-.23.078-.14.058-.31-.04-.43l-6.937-9.85c-.08-.1-.2-.18-.34-.18h-12.56zm12.358.828c.22.323 5.57 7.894 6.36 9.024h-11.58c-.22-.242-7.09-7.53-7.49-7.954.18-.303.46-.827.62-1.07h12.1z"/><path fill="#BE9F56" d="M117.822 4.603l-5.62 9.85c-.12.203-.04.445.158.567.2.12.44.04.558-.162l5.62-9.852c.12-.2.04-.444-.158-.565-.18-.12-.44-.04-.558.17zm-12.558 0l-5.6 9.85c-.12.203-.04.445.16.567.198.12.437.04.557-.162l5.63-9.852c.12-.2.04-.444-.16-.565-.2-.12-.46-.04-.58.17z"/><path fill="#BE9F56" d="M119.237 2.12l-4.844 8.5c-.12.2-.04.443.16.564.2.12.438.04.558-.162l4.85-8.5c.12-.2.04-.443-.16-.564-.2-.1-.45-.02-.55.162zm-12.298-.445l-5.63 9.852c-.12.202-.04.444.16.565.2.12.44.04.55-.16l5.62-9.853c.12-.21.04-.45-.16-.57-.2-.12-.44-.04-.56.16z"/><path fill="#BE9F56" d="M103.63 1.453c-1.236 0-2.233 1.01-2.233 2.26 0 1.253.997 2.262 2.233 2.262.22 0 .418-.18.418-.424 0-.22-.18-.42-.418-.42-.778 0-1.395-.64-1.395-1.41 0-.78.637-1.41 1.395-1.41h3.667c.22 0 .42-.18.42-.42 0-.22-.18-.42-.42-.42h-3.667zM99.922 7.63h.2v7.026h-.2V7.63zm0 7.026h.2v7.026h-.2v-7.026z"/><path fill="#BE9F56" d="M97.543 8.08l.188-.068 2.38 6.602-.18.07"/><path fill="#BE9F56" d="M99.915 14.683l.187-.07 2.373 6.603-.188.07"/><path fill="#BE9F56" d="M95.487 9.34l.153-.13 4.46 5.382-.154.13"/><path fill="#BE9F56" d="M99.93 14.722l.152-.13 4.46 5.383-.154.13"/><path fill="#BE9F56" d="M93.963 11.224l6 3.513.1-.182-6-3.512"/><path fill="#BE9F56" d="M99.962 14.737l6.02 3.513.1-.182-6.02-3.513"/><path fill="#BE9F56" d="M93.17 13.54l.035-.2 6.83 1.22-.034.2"/><path fill="#BE9F56" d="M99.995 14.754l.034-.2 6.83 1.22-.04.2"/><path fill="#BE9F56" d="M93.16 15.775l6.83-1.223.035.2-6.83 1.222-.035-.2zm6.84-1.213l6.83-1.224.034.2-6.83 1.222-.035-.198z"/><path fill="#BE9F56" d="M93.957 18.076l6.013-3.504.1.175-6.013 3.504"/><path fill="#BE9F56" d="M99.962 14.555l.1.182 6.02-3.513-.1-.18"/><path fill="#BE9F56" d="M95.48 19.965l4.457-5.382.152.13-4.46 5.382"/><path fill="#BE9F56" d="M99.922 14.59l4.46-5.382.152.13-4.46 5.38"/><path fill="#BE9F56" d="M97.54 21.223l2.37-6.602.188.07-2.372 6.61-.187-.07zm2.373-6.603l2.376-6.6.18.068-2.38 6.6-.19-.068zm25.104-6.99h.2v7.026h-.2V7.63zm0 7.026h.2v7.026h-.2v-7.026z"/><path fill="#BE9F56" d="M122.66 8.082l.186-.07 2.372 6.603-.187.07"/><path fill="#BE9F56" d="M125.03 14.682l.187-.07 2.373 6.603-.188.07"/><path fill="#BE9F56" d="M120.604 9.34l.152-.13 4.46 5.38-.153.13"/><path fill="#BE9F56" d="M125.043 14.723l.152-.13 4.458 5.382-.152.13"/><path fill="#BE9F56" d="M119.073 11.228l.1-.175 6.007 3.513-.1.175-6.007-3.51zm6.004 3.52l.1-.174 6.006 3.513-.1.174-6.006-3.51z"/><path fill="#BE9F56" d="M118.28 13.546l6.837 1.21.02-.2-6.817-1.232"/><path fill="#BE9F56" d="M125.117 14.757l6.817 1.21.04-.2-6.837-1.212"/><path fill="#BE9F56" d="M118.28 15.767l.04.2 6.817-1.21-.02-.202-6.837 1.212zm6.837-1.212l.02.202 6.837-1.21-.04-.223-6.817 1.23z"/><path fill="#BE9F56" d="M119.073 18.074l6.014-3.5.1.174-6.015 3.5"/><path fill="#BE9F56" d="M125.077 14.57l6.008-3.51.1.173-6.008 3.512"/><path fill="#BE9F56" d="M120.59 19.963l4.46-5.38.152.13-4.46 5.38"/><path fill="#BE9F56" d="M125.037 14.587l4.458-5.382.152.13-4.457 5.382"/><path fill="#BE9F56" d="M122.652 21.22l2.374-6.602.187.07-2.374 6.6"/><path fill="#BE9F56" d="M125.037 14.616l.18.08 2.372-6.6-.18-.082"/><path fill="#BE9F56" d="M126.393 14.656c0 .707-.558 1.292-1.276 1.292-.698 0-1.276-.565-1.276-1.292 0-.706.56-1.292 1.28-1.292s1.28.586 1.28 1.292zm-25.653 0c0 .404-.32.727-.718.727-.4 0-.718-.323-.718-.727 0-.404.32-.727.718-.727.4 0 .718.32.718.72zM122.008 2.08c-.2.342-.818.625-1.396.625h-1.096c-.558 0-1.156-.1-1.316-.202-.16-.12-.697-.202-1.215-.202-.52 0-.818-.18-.658-.42.14-.22.717-.42 1.275-.42h4.206c.32 0 .4.29.2.63zm-9.747 9.104h.62v7.025h-.61v-7.03z"/><path fill="#BE9F56" d="M111.802 10.88h1.535v.607h-1.535v-.606zm0 7.047h1.535v.605h-1.535v-.605zm.777-5.915c-1.44 0-2.6 1.19-2.6 2.624 0 1.454 1.17 2.624 2.59 2.624 1.43 0 2.59-1.19 2.59-2.624 0-1.433-1.16-2.624-2.59-2.624zm0 4.542c-1.04 0-1.88-.848-1.88-1.898 0-1.05.83-1.897 1.87-1.897s1.87.84 1.87 1.89-.84 1.9-1.88 1.9z"/><path fill="#FFF" d="M112.58 12.76c-1.037 0-1.874.846-1.874 1.896 0 1.05.837 1.898 1.873 1.898s1.87-.848 1.87-1.898c0-1.05-.84-1.897-1.88-1.897zm0-.324v4.44-4.44zm-1.555.646l3.09 3.15-3.09-3.15zm-.638 1.574h4.365-4.365zm.638 1.575l3.09-3.14-3.09 3.15z"/><path fill="#BE9F56" d="M114.752 14.878v-.464h-1.256c-.02-.1-.06-.182-.1-.263l.898-.9-.32-.32-.896.91c-.08-.04-.16-.08-.26-.1v-1.3h-.458v1.29c-.1.02-.18.06-.26.1l-.896-.91-.32.33.898.91c-.04.08-.08.17-.1.27h-1.275v.47h1.275c.02.1.06.19.1.27l-.897.91.32.32.896-.91c.08.04.16.08.26.1v1.3h.46V15.6c.1-.02.18-.06.26-.1l.9.903.32-.326-.9-.91c.04-.08.08-.16.1-.26h1.26z"/><path fill="#BE9F56" d="M112.36 12.415c-.02.12.08.222.18.222l12.557 1.232c.12.02.22-.09.22-.19.02-.12-.08-.22-.18-.22l-12.558-1.23c-.1-.02-.2.06-.22.18zm12.757 3.11l-12.557 1.13c-.12.02-.2.12-.18.222.02.12.12.202.22.182l12.557-1.14c.12-.02.2-.12.18-.22-.02-.1-.12-.18-.22-.18z"/></g></svg>
